<svg width="200" height="248" viewBox="0 0 200 248" fill="none" xmlns="http://www.w3.org/2000/svg">
<path d="M154.927 10.9363C155.525 10.9363 156.136 10.9363 156.734 10.9363C157.062 10.9363 157.322 10.7873 157.367 10.4078C157.412 10.0284 157.593 9.91995 157.65 9.67601C157.797 8.97131 157.492 8.59186 156.723 8.5512C156.344 8.52599 155.964 8.56246 155.593 8.65962C155.396 8.72983 155.187 8.73413 154.987 8.67203C154.788 8.60994 154.607 8.48381 154.463 8.30727C154.315 8.14006 154.131 8.02407 153.933 7.97159C153.734 7.91911 153.527 7.93208 153.333 8.00913C152.571 8.21662 151.875 8.68778 151.333 9.36432C151.285 9.44517 151.258 9.54238 151.258 9.64213C151.258 9.74188 151.285 9.8391 151.333 9.91995C151.577 10.3255 151.927 10.6213 152.328 10.7602C153.174 11.0355 154.06 11.0955 154.927 10.9363V10.9363Z" fill="white"/>
<path d="M180.599 13.0776C181.175 13.2944 181.729 13.5248 182.328 13.7145C182.644 13.8094 182.927 13.7958 183.062 13.4435C183.198 13.0911 183.412 13.0776 183.525 12.8608C183.842 12.2509 183.65 11.7766 182.938 11.5056C182.574 11.3417 182.194 11.2324 181.808 11.1803C181.597 11.1771 181.391 11.103 181.213 10.9665C181.035 10.8299 180.893 10.6364 180.802 10.4079C180.655 9.97421 180.271 9.77093 179.763 9.68962C178.979 9.60465 178.192 9.80288 177.503 10.2588C177.43 10.3102 177.373 10.3874 177.338 10.4796C177.304 10.5719 177.294 10.6746 177.311 10.7738C177.441 11.253 177.699 11.6674 178.045 11.9528C178.816 12.5514 179.688 12.9357 180.599 13.0776V13.0776Z" fill="white"/>
<path d="M172.768 10.8414C173.367 10.8414 173.977 10.7737 174.576 10.6924C174.904 10.6924 175.164 10.5162 175.187 10.1367C175.209 9.75729 175.401 9.64888 175.446 9.39139C175.559 8.68669 175.243 8.32079 174.475 8.32079C174.094 8.32057 173.715 8.37517 173.345 8.48341C173.154 8.57171 172.945 8.59183 172.745 8.54134C172.544 8.49084 172.36 8.37189 172.215 8.19882C172.054 8.02782 171.856 7.91533 171.644 7.87452C171.432 7.83372 171.214 7.86629 171.017 7.96844C170.262 8.21892 169.588 8.7388 169.085 9.45915C169.036 9.54 169.01 9.63721 169.01 9.73696C169.01 9.83671 169.036 9.93393 169.085 10.0148C169.342 10.4134 169.705 10.6954 170.113 10.8143C170.986 11.0506 171.892 11.0598 172.768 10.8414V10.8414Z" fill="white"/>
<path d="M166.441 10.3672C165.945 10.4741 165.481 10.7359 165.096 11.1261C164.782 11.4034 164.402 11.5531 164.011 11.5531C163.621 11.5531 163.241 11.4034 162.927 11.1261C162.364 10.5828 161.671 10.2694 160.949 10.2316C160.723 10.2316 160.463 10.6246 160.249 10.462C160.192 10.4688 160.135 10.4688 160.079 10.462V8.83579C160.203 8.83579 160.328 8.70027 160.452 8.67316C160.594 8.69335 160.732 8.74384 160.859 8.82223C161.017 8.89445 161.189 8.91742 161.356 8.88898C161.524 8.86055 161.684 8.78165 161.819 8.65961C161.871 8.59442 161.933 8.54251 162.002 8.50704C162.071 8.47157 162.145 8.45328 162.22 8.45328C162.295 8.45328 162.37 8.47157 162.439 8.50704C162.508 8.54251 162.57 8.59442 162.621 8.65961C162.859 9.01196 163.096 8.86289 163.322 8.65961C163.548 8.45633 163.48 8.41568 163.582 8.30726C163.963 7.96599 164.411 7.75015 164.883 7.68121C165.355 7.61226 165.833 7.69261 166.271 7.91426C166.489 8.04158 166.67 8.24462 166.791 8.49699C166.891 8.83864 166.955 9.19362 166.983 9.55404C167.002 9.65164 167.002 9.75307 166.983 9.85072C166.965 9.94838 166.928 10.0397 166.876 10.1179C166.824 10.1962 166.757 10.2592 166.682 10.3024C166.607 10.3455 166.524 10.3677 166.441 10.3672Z" fill="white"/>
<path d="M190.373 30.9661C190.655 31.8063 190.949 32.6737 191.265 33.5139C191.446 34.0018 191.729 34.0831 191.955 33.7714C192.308 33.2739 192.556 32.6816 192.678 32.0447C192.8 31.4077 192.792 30.7449 192.655 30.1124C192.542 29.3806 192.475 29.1502 192.079 29.0418C191.749 28.9153 191.47 28.6444 191.299 28.2829C191.175 28.0796 190.983 27.7543 190.904 27.795C190.676 27.9072 190.494 28.121 190.395 28.3913C190.171 29.2272 190.164 30.1248 190.373 30.9661V30.9661Z" fill="white"/>
<path d="M190 22.5774C189.551 22.1775 189.027 21.9168 188.475 21.8185C188.046 21.7024 187.653 21.4437 187.341 21.0722C187.03 20.7007 186.811 20.2313 186.712 19.718C186.571 18.77 186.206 17.8904 185.661 17.1838C185.469 16.9669 185.028 16.9805 184.949 16.6552L184.802 16.4791L185.774 15.3271C185.876 15.4491 186.045 15.4762 186.158 15.5846C186.265 15.7326 186.35 15.9024 186.407 16.0861C186.491 16.2922 186.612 16.4726 186.763 16.6135C186.914 16.7544 187.09 16.8521 187.277 16.8992C187.445 16.9253 187.599 17.0235 187.711 17.1754C187.823 17.3274 187.886 17.5229 187.887 17.7258C187.887 18.2002 188.147 18.3221 188.429 18.417C188.568 18.4373 188.709 18.4373 188.847 18.417C189.37 18.5566 189.858 18.8398 190.274 19.2443C190.69 19.6488 191.021 20.1635 191.243 20.7479C191.345 21.039 191.372 21.3596 191.322 21.6694C191.201 22.0019 191.041 22.3122 190.847 22.591C190.793 22.6603 190.727 22.7153 190.653 22.7525C190.58 22.7897 190.501 22.8082 190.421 22.807C190.342 22.8057 190.263 22.7846 190.191 22.7451C190.118 22.7056 190.053 22.6485 190 22.5774V22.5774Z" fill="white"/>
<path d="M156.508 237.524C157.107 237.524 157.717 237.524 158.316 237.524C158.644 237.524 158.915 237.673 158.949 238.053C158.983 238.432 159.186 238.54 159.232 238.784C159.379 239.476 159.073 239.855 158.305 239.909C157.926 239.928 157.547 239.891 157.175 239.801C156.979 239.719 156.767 239.709 156.566 239.771C156.364 239.834 156.183 239.967 156.045 240.153C155.886 240.323 155.693 240.438 155.484 240.488C155.276 240.538 155.06 240.521 154.859 240.438C154.098 240.235 153.405 239.763 152.87 239.083C152.814 239.008 152.779 238.915 152.769 238.815C152.759 238.716 152.774 238.615 152.814 238.527C153.061 238.117 153.415 237.817 153.819 237.673C154.696 237.389 155.614 237.338 156.508 237.524V237.524Z" fill="white"/>
<path d="M182.181 235.37C182.757 235.166 183.311 234.936 183.921 234.746C184.237 234.638 184.52 234.665 184.655 235.017C184.791 235.37 185.006 235.383 185.119 235.6C185.435 236.21 185.243 236.684 184.531 236.955C184.167 237.12 183.788 237.229 183.401 237.28C183.193 237.285 182.99 237.358 182.815 237.492C182.64 237.626 182.498 237.815 182.407 238.039C182.308 238.269 182.157 238.459 181.97 238.589C181.784 238.719 181.571 238.782 181.356 238.771C180.571 238.855 179.783 238.652 179.096 238.188C179.025 238.138 178.967 238.064 178.931 237.975C178.895 237.885 178.881 237.785 178.893 237.687C179.02 237.206 179.278 236.79 179.627 236.508C180.399 235.91 181.271 235.521 182.181 235.37V235.37Z" fill="white"/>
<path d="M174.35 237.592C174.961 237.592 175.559 237.673 176.158 237.741C176.486 237.741 176.746 237.917 176.768 238.31C176.791 238.703 176.983 238.798 177.028 239.055C177.153 239.76 176.825 240.126 176.057 240.126C175.676 240.12 175.297 240.066 174.927 239.963C174.734 239.885 174.528 239.869 174.329 239.919C174.13 239.97 173.946 240.083 173.797 240.248C173.643 240.404 173.457 240.507 173.258 240.548C173.059 240.588 172.855 240.564 172.667 240.478C171.912 240.219 171.236 239.701 170.723 238.988C170.679 238.905 170.655 238.808 170.655 238.71C170.655 238.611 170.679 238.515 170.723 238.432C170.985 238.032 171.351 237.751 171.763 237.632C172.614 237.408 173.494 237.394 174.35 237.592V237.592Z" fill="white"/>
<path d="M168.034 238.094C167.532 237.988 167.063 237.721 166.678 237.321C166.364 237.044 165.984 236.894 165.593 236.894C165.203 236.894 164.823 237.044 164.509 237.321C163.949 237.862 163.26 238.175 162.542 238.215C162.316 238.215 162.057 237.822 161.831 237.972H161.65V239.611C161.785 239.611 161.898 239.747 162.023 239.774C162.168 239.762 162.31 239.716 162.441 239.638C162.597 239.562 162.767 239.537 162.934 239.565C163.1 239.594 163.258 239.675 163.39 239.801C163.498 239.93 163.644 240.003 163.797 240.003C163.949 240.003 164.095 239.93 164.203 239.801C164.441 239.449 164.678 239.598 164.904 239.801C165.13 240.004 165.062 240.045 165.164 240.153C165.542 240.496 165.989 240.713 166.459 240.782C166.929 240.851 167.406 240.77 167.842 240.546C168.07 240.392 168.252 240.155 168.362 239.869C168.458 239.527 168.518 239.172 168.542 238.812C168.552 238.724 168.546 238.634 168.525 238.549C168.504 238.464 168.468 238.385 168.421 238.318C168.373 238.25 168.314 238.195 168.247 238.157C168.18 238.118 168.108 238.097 168.034 238.094V238.094Z" fill="white"/>
<path d="M191.955 217.494C192.249 216.654 192.531 215.787 192.848 214.947C193.028 214.459 193.311 214.377 193.537 214.676C193.892 215.174 194.141 215.769 194.263 216.409C194.385 217.048 194.376 217.714 194.237 218.348C194.124 219.08 194.068 219.297 193.661 219.405C193.332 219.542 193.055 219.816 192.881 220.178C192.768 220.381 192.565 220.706 192.486 220.665C192.26 220.55 192.079 220.337 191.977 220.069C191.753 219.233 191.746 218.336 191.955 217.494V217.494Z" fill="white"/>
<path d="M191.593 225.883C191.141 226.285 190.613 226.546 190.057 226.642C189.628 226.758 189.235 227.017 188.923 227.388C188.612 227.76 188.393 228.229 188.294 228.742C188.158 229.692 187.793 230.574 187.243 231.277C187.051 231.494 186.621 231.466 186.531 231.805C186.483 231.856 186.438 231.91 186.396 231.968L187.356 233.12C187.469 233.011 187.638 232.984 187.751 232.876C187.851 232.724 187.931 232.555 187.989 232.374C188.075 232.171 188.198 231.992 188.348 231.852C188.499 231.711 188.673 231.612 188.859 231.561C189.028 231.538 189.183 231.441 189.296 231.288C189.408 231.135 189.47 230.938 189.469 230.735C189.469 230.26 189.74 230.138 190.023 230.043C190.161 230.023 190.302 230.023 190.441 230.043C190.963 229.908 191.452 229.626 191.866 229.221C192.28 228.816 192.609 228.299 192.825 227.713C192.932 227.423 192.96 227.1 192.904 226.791C192.783 226.459 192.623 226.148 192.429 225.869C192.376 225.8 192.31 225.746 192.238 225.709C192.166 225.672 192.088 225.653 192.009 225.654C191.93 225.656 191.852 225.677 191.781 225.716C191.709 225.755 191.645 225.812 191.593 225.883Z" fill="white"/>
<path d="M44.5084 238.08C43.9096 238.08 43.2994 238.08 42.7005 238.08C42.3728 238.08 42.1017 238.229 42.0678 238.608C42.0339 238.988 41.8305 239.096 41.7853 239.34C41.6384 240.031 41.9435 240.424 42.7118 240.465C43.0907 240.483 43.4701 240.447 43.8418 240.356C44.039 240.286 44.2485 240.282 44.4476 240.344C44.6467 240.406 44.828 240.532 44.9717 240.709C45.1237 240.869 45.3071 240.98 45.5047 241.032C45.7023 241.085 45.9076 241.076 46.1017 241.007C46.8624 240.803 47.5549 240.331 48.0904 239.652C48.1462 239.577 48.1815 239.484 48.1917 239.385C48.2018 239.285 48.1861 239.185 48.1469 239.096C47.896 238.69 47.5437 238.391 47.1412 238.242C46.2833 237.964 45.3857 237.908 44.5084 238.08V238.08Z" fill="white"/>
<path d="M18.8361 235.939C18.2599 235.722 17.7062 235.492 17.096 235.302C16.7796 235.193 16.4972 235.221 16.3616 235.573C16.226 235.925 16.0113 235.939 15.8983 236.156C15.5819 236.765 15.774 237.24 16.4859 237.511C16.8497 237.675 17.2293 237.785 17.6158 237.836C17.8237 237.841 18.0266 237.914 18.202 238.048C18.3775 238.182 18.5187 238.371 18.6101 238.595C18.709 238.824 18.8604 239.015 19.0466 239.145C19.2327 239.274 19.4459 239.338 19.661 239.327C20.4449 239.415 21.2328 239.217 21.9209 238.758C21.9913 238.703 22.0476 238.626 22.0835 238.535C22.1195 238.444 22.1336 238.343 22.1243 238.243C21.9974 237.761 21.7385 237.346 21.3898 237.064C20.6197 236.464 19.7469 236.079 18.8361 235.939V235.939Z" fill="white"/>
<path d="M26.6666 238.161C26.0565 238.161 25.4576 238.161 24.8587 238.296C24.5311 238.296 24.2712 238.486 24.2486 238.866C24.226 239.245 24.0339 239.354 23.9887 239.611C23.8644 240.316 24.1921 240.682 24.9604 240.682C25.3408 240.676 25.7197 240.622 26.0904 240.519C26.2827 240.44 26.4891 240.425 26.6879 240.475C26.8868 240.525 27.0707 240.639 27.2203 240.804C27.3744 240.959 27.5604 241.063 27.7591 241.103C27.9578 241.144 28.1619 241.12 28.3503 241.034C29.1053 240.775 29.7807 240.256 30.2938 239.543C30.3381 239.46 30.3616 239.364 30.3616 239.265C30.3616 239.167 30.3381 239.071 30.2938 238.988C30.0324 238.588 29.666 238.306 29.2542 238.188C28.4028 237.962 27.5212 237.953 26.6666 238.161V238.161Z" fill="white"/>
<path d="M32.983 238.649C33.4825 238.543 33.95 238.281 34.339 237.89C34.6519 237.609 35.0325 237.457 35.4237 237.457C35.8149 237.457 36.1955 237.609 36.5085 237.89C37.0682 238.431 37.7567 238.744 38.4746 238.785C38.7006 238.785 38.9605 238.392 39.1864 238.541H39.3672V240.18C39.2316 240.18 39.1186 240.316 38.9943 240.343C38.849 240.322 38.7077 240.271 38.5763 240.194C38.4203 240.118 38.2501 240.092 38.0833 240.121C37.9165 240.15 37.759 240.231 37.6271 240.357C37.5744 240.422 37.5112 240.474 37.4413 240.51C37.3714 240.546 37.2963 240.564 37.2203 240.564C37.1444 240.564 37.0692 240.546 36.9993 240.51C36.9294 240.474 36.8663 240.422 36.8136 240.357C36.5763 240.004 36.339 240.153 36.113 240.357C35.887 240.56 35.9548 240.601 35.8531 240.709C35.4752 241.052 35.0284 241.268 34.5582 241.337C34.0879 241.406 33.6108 241.325 33.1751 241.102C32.9541 240.975 32.7693 240.772 32.6441 240.519C32.5481 240.177 32.4874 239.822 32.4633 239.462C32.4427 239.367 32.4405 239.267 32.4569 239.17C32.4733 239.073 32.5079 238.982 32.558 238.904C32.6081 238.825 32.6724 238.762 32.746 238.718C32.8197 238.674 32.9007 238.65 32.983 238.649Z" fill="white"/>
<path d="M8.80226 221.127C8.50847 220.3 8.22598 219.419 7.9096 218.579C7.72881 218.105 7.44632 218.023 7.22033 218.321C6.86516 218.82 6.61594 219.415 6.49395 220.054C6.37195 220.694 6.38081 221.359 6.51977 221.994C6.63276 222.712 6.68926 222.943 7.09604 223.051C7.42926 223.178 7.70859 223.455 7.8757 223.823C7.99999 224.027 8.19208 224.352 8.27118 224.311C8.38522 224.255 8.48883 224.172 8.57609 224.067C8.66334 223.963 8.73252 223.838 8.77966 223.701C9.00367 222.866 9.01155 221.968 8.80226 221.127V221.127Z" fill="white"/>
<path d="M9.42376 226.439C9.87556 226.841 10.4037 227.101 10.9605 227.198C11.3892 227.314 11.7819 227.572 12.0937 227.944C12.4054 228.315 12.6236 228.785 12.7232 229.298C12.8589 230.248 13.2243 231.129 13.774 231.832C13.9661 232.049 14.3955 232.036 14.4859 232.361L14.6215 232.523L13.661 233.689C13.5481 233.567 13.3786 233.54 13.2656 233.431C13.1635 233.282 13.0833 233.112 13.0283 232.93C12.9419 232.726 12.8191 232.548 12.6688 232.407C12.5184 232.267 12.3441 232.168 12.1582 232.117C11.9895 232.094 11.8338 231.996 11.7212 231.844C11.6086 231.691 11.5469 231.494 11.5481 231.29C11.5481 230.816 11.2769 230.694 10.9944 230.599C10.8555 230.579 10.7152 230.579 10.5763 230.599C10.0538 230.464 9.56544 230.182 9.15108 229.777C8.73673 229.372 8.40813 228.855 8.19212 228.268C8.08482 227.979 8.05712 227.656 8.11303 227.347C8.23421 227.014 8.39398 226.704 8.5876 226.425C8.64134 226.356 8.70651 226.301 8.77894 226.264C8.85137 226.227 8.92945 226.209 9.00818 226.21C9.08691 226.211 9.16455 226.232 9.23612 226.272C9.30769 226.311 9.3716 226.368 9.42376 226.439V226.439Z" fill="white"/>
<path d="M193.22 87.2065C193.267 86.7975 193.238 86.3812 193.134 85.9875C193.031 85.5938 192.855 85.2326 192.622 84.9298C192.149 84.0321 191.891 82.9962 191.876 81.9348C191.843 81.7303 191.847 81.5198 191.886 81.3169C191.924 81.1139 191.998 80.9229 192.102 80.7558C192.185 80.6241 192.239 80.4685 192.256 80.3045C192.274 80.1405 192.256 79.9737 192.203 79.8207C192.021 78.9945 191.802 78.1802 191.548 77.3814C191.339 76.8488 191.287 76.2465 191.401 75.6738C191.548 74.8337 191.548 73.9662 191.401 73.1261C191.206 71.9808 191.152 70.8072 191.243 69.6433C191.367 68.2881 191.333 66.9329 191.379 65.4964C191.379 65.0221 191.446 64.5477 191.469 64.1412C191.492 63.7346 191.469 63.1112 191.548 62.5827C191.627 62.0542 191.605 61.4715 191.638 60.9158C191.638 60.8345 191.638 60.7396 191.638 60.6583C191.39 58.8559 191.853 57.0806 191.638 55.2376C191.606 53.9887 191.686 52.7393 191.876 51.5108C191.966 50.7607 192.224 50.0537 192.622 49.4645C192.78 49.207 192.915 49.1121 193.13 49.1799C193.898 49.3967 194.034 49.5864 194.158 50.9416C194.343 52.305 194.242 53.7023 193.864 55.0072C193.752 55.3653 193.752 55.7604 193.864 56.1184C193.989 56.6741 194.09 57.2704 194.249 57.7989C194.922 60.5232 195.084 63.3927 194.723 66.2011C194.717 66.332 194.717 66.4632 194.723 66.5941C194.731 68.4492 194.564 70.2994 194.226 72.1097C194.035 73.5117 193.944 74.9308 193.955 76.3514C193.955 77.0155 193.898 77.7066 193.514 78.0183C193.411 78.1621 193.33 78.3275 193.277 78.5062C193.221 78.6048 193.198 78.7252 193.213 78.8432C193.227 78.9613 193.278 79.0684 193.356 79.1431C193.558 79.3454 193.733 79.583 193.876 79.8478C194.087 80.2617 194.225 80.7228 194.283 81.203C194.42 82.352 194.291 83.5241 193.91 84.591C193.572 85.3683 193.503 86.2738 193.718 87.1117C193.966 88.4669 194.136 89.822 194.305 91.1772C194.373 91.7193 194.305 92.2885 194.305 92.8577C194.305 93.9418 194.429 95.0124 194.475 96.0966C194.556 98.5678 194.427 101.043 194.09 103.482C193.876 105.122 193.831 106.83 193.695 108.51C193.616 109.499 193.503 110.475 193.424 111.464C193.331 112.14 193.304 112.827 193.345 113.511C193.546 115.498 193.607 117.502 193.525 119.501C193.503 120.708 193.602 121.913 193.819 123.092C194.18 124.844 194.094 126.685 193.571 128.377C193.396 128.885 193.396 129.455 193.571 129.963C193.785 130.806 193.951 131.667 194.068 132.538C194.186 133.288 194.082 134.065 193.774 134.733C193.693 134.852 193.635 134.991 193.605 135.14C193.529 135.779 193.336 136.39 193.04 136.928C192.953 137.08 192.913 137.262 192.926 137.444C192.938 137.627 193.002 137.799 193.107 137.931C193.196 138.019 193.279 138.114 193.356 138.216C193.536 138.488 193.665 138.803 193.735 139.139C193.805 139.476 193.815 139.826 193.763 140.167C193.672 141.346 193.49 142.512 193.22 143.65C193.045 144.191 193.045 144.79 193.22 145.331C193.493 146.371 193.712 147.43 193.876 148.502C193.922 148.952 193.922 149.407 193.876 149.857C193.819 151.022 193.706 152.188 193.65 153.353C193.648 153.682 193.698 154.009 193.797 154.316C193.909 154.684 194.045 155.042 194.203 155.386C194.786 157.102 194.981 158.972 194.768 160.807C194.718 161.101 194.696 161.401 194.701 161.701C194.85 163.499 194.531 165.308 193.785 166.878C193.469 167.637 193.446 167.637 193.729 168.437C193.912 168.932 194.115 169.416 194.339 169.887C194.977 171.097 195.267 172.525 195.164 173.952C195.085 174.982 195.107 176.039 195.051 177.069C195.051 177.598 194.949 178.018 194.531 178.086C194.113 178.153 193.921 178.574 193.65 178.912C193.546 179.082 193.479 179.28 193.456 179.488C193.432 179.696 193.452 179.908 193.514 180.105C193.648 180.966 193.826 181.817 194.045 182.653C194.329 183.627 194.329 184.687 194.045 185.661C193.761 186.545 193.208 187.267 192.497 187.68C192.441 187.68 192.316 187.599 192.26 187.477C191.912 186.896 191.691 186.219 191.618 185.508C191.545 184.798 191.622 184.077 191.842 183.412C192.186 182.185 192.186 180.857 191.842 179.631C191.571 178.075 191.571 176.47 191.842 174.915C191.932 173.844 192.057 172.773 192.158 171.703C192.175 171.623 192.175 171.539 192.158 171.459C191.744 169.625 191.457 167.753 191.3 165.862C191.268 165.374 191.128 164.906 190.893 164.507C190.756 164.294 190.666 164.044 190.631 163.779C190.595 163.514 190.615 163.242 190.689 162.989C190.939 162.119 191.028 161.194 190.949 160.278C190.944 160.151 190.968 160.025 191.017 159.913C191.491 158.448 191.539 156.834 191.153 155.332C191.051 154.749 191.062 153.977 190.655 153.692C190.611 153.632 190.587 153.555 190.588 153.475C190.588 151.944 190.113 150.44 190.588 148.868C190.782 147.834 191.05 146.823 191.39 145.846C191.593 145.398 191.492 144.626 191.842 144.26C191.846 144.102 191.823 143.946 191.774 143.799C191.605 143.433 191.401 143.122 191.232 142.742C191.025 142.305 190.902 141.818 190.871 141.316C190.84 140.815 190.901 140.312 191.051 139.842C191.262 139.144 191.515 138.464 191.808 137.809C192.147 137.05 192.136 136.766 191.729 136.183C191.249 135.266 191.039 134.184 191.13 133.107C191.124 132.63 191.158 132.153 191.232 131.684C191.47 130.307 191.435 128.882 191.13 127.523C190.978 126.629 190.978 125.707 191.13 124.813C191.275 123.99 191.244 123.137 191.04 122.333C190.854 121.448 190.778 120.535 190.814 119.623C190.814 118.498 190.814 117.36 190.814 116.235C190.784 116.024 190.784 115.809 190.814 115.598C191.009 114.636 191.059 113.64 190.961 112.657C190.961 111.302 190.961 109.838 190.961 108.415C190.961 108.049 191.175 107.697 191.175 107.331C191.265 106.139 191.409 104.954 191.605 103.781C191.695 103.103 191.695 102.412 191.605 101.734C191.403 100.424 191.473 99.0744 191.808 97.8041C192.108 96.3455 192.162 94.8295 191.966 93.3455C191.815 91.8514 191.888 90.3369 192.181 88.8734C192.26 88.4669 192.35 88.1958 192.655 88.3449C193.198 88.6024 193.266 88.494 193.3 87.4911C193.276 87.3953 193.249 87.3004 193.22 87.2065Z" fill="white"/>
<path d="M191.514 42.7155C191.514 41.8888 191.514 41.0621 191.514 40.2355C191.514 39.7882 191.638 39.4359 191.955 39.3681C192.271 39.3004 192.35 39.0564 192.565 38.9887C193.141 38.7854 193.458 39.2055 193.503 40.249C193.513 40.7707 193.482 41.2924 193.412 41.8075C193.341 42.075 193.33 42.3607 193.382 42.6348C193.434 42.9089 193.546 43.1614 193.706 43.3659C193.85 43.5927 193.947 43.8573 193.988 44.1378C194.029 44.4183 194.014 44.7066 193.944 44.9786C193.78 45.9888 193.389 46.9262 192.814 47.689C192.747 47.7495 192.666 47.7822 192.582 47.7822C192.498 47.7822 192.417 47.7495 192.35 47.689C192 47.3389 191.75 46.8644 191.638 46.3338C191.409 45.1476 191.366 43.9203 191.514 42.7155V42.7155Z" fill="white"/>
<path d="M191.48 194.944C191.605 194.063 191.729 193.128 191.887 192.234C191.977 191.719 192.249 191.57 192.531 191.8C192.99 192.172 193.364 192.675 193.618 193.265C193.873 193.854 194 194.511 193.989 195.175C193.989 195.92 193.989 196.15 193.616 196.367C193.303 196.573 193.072 196.919 192.972 197.329C192.893 197.56 192.746 197.926 192.655 197.912C192.405 197.864 192.179 197.704 192.023 197.465C191.624 196.715 191.434 195.832 191.48 194.944V194.944Z" fill="white"/>
<path d="M192.158 202.696C192.072 203.364 191.851 203.997 191.514 204.539C191.282 204.986 191.159 205.503 191.159 206.03C191.159 206.557 191.282 207.073 191.514 207.52C191.983 208.315 192.247 209.258 192.271 210.231C192.271 210.542 191.943 210.895 192.068 211.206C192.062 211.288 192.062 211.369 192.068 211.45H193.435C193.435 211.274 193.548 211.112 193.559 210.935C193.548 210.744 193.51 210.556 193.446 210.38C193.377 210.157 193.354 209.918 193.377 209.682C193.401 209.447 193.471 209.221 193.582 209.025C193.686 208.865 193.738 208.665 193.728 208.463C193.718 208.26 193.645 208.07 193.525 207.927C193.243 207.602 193.367 207.276 193.525 206.965C193.684 206.653 193.74 206.748 193.83 206.612C194.119 206.073 194.299 205.46 194.355 204.822C194.412 204.185 194.345 203.54 194.158 202.94C194.056 202.646 193.883 202.396 193.661 202.222C193.381 202.091 193.089 202.005 192.791 201.964C192.463 201.923 192.203 202.154 192.158 202.696Z" fill="white"/>
<path d="M75.808 8.64588C75.5023 8.59573 75.1911 8.63621 74.9015 8.76379C74.6119 8.89137 74.3529 9.10216 74.147 9.37768C73.5093 9.93676 72.7445 10.2488 71.9549 10.2721C71.8032 10.3091 71.6463 10.3026 71.4971 10.2532C71.3478 10.2037 71.2104 10.1127 71.0961 9.98752C71.0026 9.89073 70.8875 9.82889 70.765 9.80962C70.6425 9.79036 70.518 9.81451 70.4068 9.87911C69.7987 10.0963 69.2024 10.3588 68.6215 10.6651C68.432 10.791 68.2235 10.8702 68.0081 10.8981C67.7927 10.9261 67.5749 10.9021 67.3673 10.8277C66.7641 10.6668 66.1383 10.6714 65.5368 10.8413C64.7028 11.0643 63.8442 11.1238 62.9944 11.0175C61.9775 10.8413 60.9492 10.8413 59.9436 10.8413C59.5933 10.8413 59.243 10.8413 58.8927 10.7329L57.7628 10.6516L56.4972 10.5296C56.4375 10.5166 56.3762 10.5166 56.3164 10.5296C54.9944 10.8142 53.695 10.2586 52.339 10.5296C51.4248 10.5821 50.5088 10.4864 49.6159 10.245C49.0546 10.1315 48.5326 9.82556 48.1131 9.36413C48.0298 9.29789 47.9657 9.20251 47.9293 9.09096C47.8929 8.97941 47.886 8.85713 47.9097 8.74075C48.0679 7.83277 48.2035 7.67014 49.1978 7.52107C50.1926 7.30161 51.2188 7.42376 52.1583 7.87342C52.42 7.99457 52.71 7.99457 52.9718 7.87342C53.3786 7.7108 53.808 7.58883 54.2035 7.3991C56.1878 6.57453 58.3129 6.3602 60.3842 6.77572H60.6667C62.0263 6.76903 63.3813 6.96477 64.7006 7.35845C65.7203 7.60058 66.7572 7.72312 67.7967 7.72435C68.2825 7.72435 68.7571 7.72435 69.0283 8.23932C69.1293 8.36298 69.2479 8.46395 69.3786 8.53746C69.414 8.56845 69.4542 8.59061 69.4969 8.60263C69.5395 8.61465 69.5837 8.61628 69.6269 8.60744C69.6701 8.59859 69.7114 8.57945 69.7483 8.55114C69.7852 8.52282 69.8171 8.48592 69.8419 8.4426C69.9888 8.20545 70.1639 7.99542 70.3616 7.81922C70.6479 7.56222 70.981 7.39037 71.3334 7.31779C72.177 7.16209 73.0401 7.31807 73.808 7.76501C74.08 7.96896 74.3868 8.0968 74.7057 8.13904C75.0245 8.18127 75.3472 8.1368 75.6498 8.00894C76.6102 7.7108 77.5933 7.49397 78.5876 7.29069C78.9941 7.26322 79.4015 7.26322 79.808 7.29069L82.1809 7.10096C83.9901 6.99594 85.8033 7.15063 87.582 7.56173C88.7797 7.81921 90.034 7.85987 91.2656 8.02249C91.9888 8.11736 92.7006 8.26643 93.4238 8.36129C93.9158 8.46605 94.4168 8.49791 94.9153 8.45615C96.367 8.20792 97.8357 8.13528 99.2995 8.23932C100.183 8.26601 101.065 8.14745 101.921 7.88697C103.203 7.45334 104.571 7.55854 105.797 8.18512C105.975 8.27839 106.167 8.32654 106.362 8.32654C106.556 8.32654 106.748 8.27839 106.927 8.18512C107.54 7.92146 108.171 7.72196 108.814 7.58883C109.085 7.51591 109.366 7.50953 109.64 7.57008C109.914 7.63063 110.175 7.75685 110.407 7.94118C110.507 8.02524 110.617 8.08931 110.735 8.13091C111.209 8.22476 111.658 8.45234 112.045 8.79495C112.096 8.84915 112.156 8.89021 112.221 8.9156C112.285 8.94098 112.354 8.95015 112.422 8.94252C112.489 8.9349 112.555 8.91065 112.615 8.87128C112.674 8.8319 112.727 8.77825 112.768 8.71364C112.848 8.61878 112.904 8.51036 112.983 8.4155C113.172 8.20635 113.4 8.05421 113.647 7.97172C113.895 7.88923 114.155 7.87876 114.407 7.94118C115.338 8.07756 116.252 8.34596 117.13 8.74075C117.324 8.84424 117.534 8.89773 117.746 8.89773C117.958 8.89773 118.168 8.84424 118.362 8.74075C119.099 8.41959 119.854 8.16146 120.622 7.96828C120.966 7.90687 121.316 7.90687 121.661 7.96828C122.509 8.0496 123.356 8.17156 124.215 8.23932C124.455 8.24577 124.694 8.19032 124.915 8.0767C125.186 7.93042 125.45 7.76758 125.706 7.58883C126.931 6.89713 128.301 6.66114 129.638 6.91124C129.851 6.9577 130.066 6.98488 130.283 6.99255C131.617 6.80554 132.963 7.19471 134.079 8.09025C134.622 8.46971 134.633 8.49681 135.209 8.09025C135.569 7.86756 135.92 7.62332 136.26 7.35845C137.111 6.62176 138.152 6.27118 139.198 6.36916C139.944 6.46402 140.723 6.43692 141.458 6.50468C141.842 6.50468 142.147 6.6402 142.192 7.12807C142.237 7.61594 142.554 7.85987 142.802 8.19867C142.921 8.31878 143.065 8.39747 143.218 8.42615C143.372 8.45483 143.529 8.43239 143.672 8.36129C144.304 8.19213 144.926 7.97946 145.537 7.72435C145.898 7.55387 146.284 7.47203 146.672 7.48367C147.061 7.4953 147.443 7.60019 147.797 7.79211C148.461 8.16868 148.988 8.82438 149.277 9.63517C149.277 9.70293 149.209 9.852 149.119 9.93331C148.719 10.3323 148.234 10.5894 147.719 10.6756C147.204 10.7619 146.679 10.6737 146.203 10.4212C145.313 10.0073 144.326 10.0073 143.435 10.4212C142.297 10.7325 141.115 10.7325 139.977 10.4212C139.198 10.3128 138.418 10.1637 137.638 10.0282C137.576 10.0081 137.509 10.0081 137.446 10.0282C136.115 10.518 134.75 10.8627 133.367 11.0581C133.014 11.1033 132.68 11.273 132.407 11.546C132.253 11.7018 132.067 11.8053 131.868 11.8458C131.669 11.8863 131.465 11.8623 131.277 11.7764C130.662 11.4913 129.999 11.389 129.345 11.4782C129.254 11.4751 129.165 11.4473 129.085 11.3969C128.017 10.8124 126.801 10.7493 125.695 11.2207C125.266 11.3563 124.723 11.3427 124.497 11.8306C124.497 11.8306 124.396 11.8983 124.339 11.9119C123.209 11.9119 122.079 12.4675 120.949 11.9119C120.172 11.6847 119.415 11.367 118.689 10.9633C118.362 10.7193 117.797 10.8277 117.559 10.4212C117.446 10.4104 117.332 10.4386 117.232 10.5025C116.961 10.7058 116.735 10.9497 116.463 11.1394C116.152 11.3846 115.796 11.5339 115.425 11.5741C115.055 11.6143 114.682 11.5441 114.339 11.3698C113.82 11.1173 113.32 10.8089 112.848 10.4483C112.294 10.0553 112.09 10.0553 111.718 10.5567C111.066 11.1272 110.259 11.3835 109.458 11.275C109.108 11.2826 108.76 11.2417 108.418 11.153C107.41 10.8673 106.357 10.9094 105.367 11.275C104.705 11.4561 104.018 11.4561 103.356 11.275C102.758 11.0943 102.128 11.132 101.548 11.3834C100.912 11.5939 100.253 11.6853 99.5933 11.6544C98.7684 11.6544 97.9323 11.6544 97.1074 11.6544C96.9535 11.6764 96.798 11.6764 96.6441 11.6544C95.9481 11.4067 95.2149 11.3465 94.4972 11.4782C93.4577 11.4782 92.4294 11.4782 91.3899 11.4782C91.13 11.4782 90.8588 11.2207 90.5989 11.2207C89.7246 11.1074 88.8567 10.9309 88.0001 10.6922C87.5061 10.597 87.0025 10.597 86.5085 10.6922C85.5494 10.9456 84.5498 10.8657 83.6272 10.4618C82.5687 10.1021 81.4556 10.0372 80.3729 10.2721C79.2772 10.4462 78.1636 10.3587 77.0961 10.0146C76.8023 9.90621 76.5989 9.81134 76.7119 9.44544C76.904 8.7814 76.8249 8.71364 76.0905 8.65943L75.808 8.64588Z" fill="white"/>
<path d="M43.2769 9.37768C42.6667 9.37768 42.0678 9.37768 41.4577 9.37768C41.13 9.37768 40.8701 9.22861 40.8362 8.84916C40.8023 8.4697 40.5989 8.36129 40.5537 8.11735C40.4068 7.41265 40.7119 7.0332 41.4803 6.99254C41.8592 6.97415 42.2385 7.01055 42.6102 7.10096C42.8074 7.17117 43.0169 7.17547 43.2161 7.11337C43.4152 7.05128 43.5964 6.92515 43.7401 6.74861C43.8939 6.56887 44.0871 6.44537 44.2972 6.39257C44.5073 6.33977 44.7256 6.35985 44.9266 6.45047C45.6873 6.65433 46.3798 7.12626 46.9153 7.80566C46.9624 7.88727 46.9877 7.98419 46.9877 8.08347C46.9877 8.18275 46.9624 8.27967 46.9153 8.36129C46.6644 8.76706 46.3121 9.06618 45.9096 9.21505C45.0508 9.48678 44.1544 9.54216 43.2769 9.37768V9.37768Z" fill="white"/>
<path d="M17.6046 11.5192C17.0283 11.736 16.4746 11.9664 15.8645 12.1561C15.5481 12.2645 15.2656 12.2374 15.13 11.8851C14.9944 11.5327 14.7797 11.5192 14.6667 11.3023C14.3503 10.6925 14.5424 10.2182 15.2543 9.94714C15.6182 9.78268 15.9978 9.67342 16.3842 9.62189C16.5952 9.62615 16.8025 9.55495 16.9795 9.41738C17.1566 9.2798 17.2956 9.08208 17.3786 8.84943C17.4848 8.62865 17.6382 8.44576 17.8229 8.31953C18.0075 8.19331 18.2169 8.1283 18.4294 8.13118C19.2133 8.04453 20.0007 8.24286 20.6893 8.70036C20.7607 8.75392 20.8178 8.83089 20.8538 8.92216C20.8899 9.01342 20.9034 9.11516 20.8927 9.21533C20.7576 9.69137 20.5006 10.104 20.1582 10.3943C19.3857 10.9885 18.5141 11.3724 17.6046 11.5192Z" fill="white"/>
<path d="M25.4351 9.29652C24.8249 9.29652 24.2261 9.22876 23.6272 9.161C23.2995 9.161 23.0396 8.97128 23.017 8.59182C22.9944 8.21237 22.8023 8.10396 22.7571 7.84647C22.6328 7.14177 22.9605 6.77587 23.7176 6.77587C24.0984 6.77485 24.4778 6.82947 24.8475 6.93849C25.0398 7.01729 25.2463 7.03244 25.4451 6.98235C25.644 6.93227 25.8279 6.8188 25.9775 6.6539C26.1316 6.49814 26.3176 6.39464 26.5163 6.35413C26.715 6.31362 26.9191 6.33758 27.1074 6.42352C27.8644 6.67772 28.541 7.19671 29.0509 7.91423C29.0952 7.99715 29.1188 8.09356 29.1188 8.19204C29.1188 8.29052 29.0952 8.38694 29.0509 8.46986C28.7896 8.86947 28.4232 9.15127 28.0114 9.26942C27.1636 9.49379 26.286 9.50302 25.4351 9.29652Z" fill="white"/>
<path d="M31.7515 8.80861C32.2483 8.91247 32.7127 9.17459 33.0961 9.56751C33.4123 9.84603 33.7943 9.99623 34.1865 9.99623C34.5788 9.99623 34.9608 9.84603 35.2769 9.56751C35.8518 9.02584 36.5573 8.72161 37.2882 8.70019C37.5142 8.70019 37.7741 9.0932 38.0001 8.93058C38.0602 8.93739 38.1207 8.93739 38.1809 8.93058V7.30435C38.0453 7.30435 37.9323 7.16883 37.808 7.14172C37.6627 7.16306 37.5213 7.21345 37.3899 7.29079C37.2333 7.36311 37.0638 7.38614 36.8977 7.35767C36.7315 7.32921 36.5742 7.2502 36.4408 7.12817C36.3881 7.06259 36.3249 7.01043 36.255 6.9748C36.1851 6.93917 36.1099 6.92081 36.034 6.92081C35.958 6.92081 35.8829 6.93917 35.813 6.9748C35.7431 7.01043 35.6799 7.06259 35.6272 7.12817C35.3899 7.48052 35.1526 7.33145 34.9266 7.12817C34.7006 6.92489 34.7684 6.88424 34.6667 6.77582C34.2888 6.43321 33.8421 6.21643 33.3718 6.14741C32.9016 6.0784 32.4245 6.15961 31.9888 6.38281C31.7635 6.50243 31.577 6.70706 31.4577 6.96555C31.3618 7.30775 31.3011 7.66273 31.2769 8.0226C31.2606 8.1121 31.2602 8.20473 31.2758 8.29441C31.2915 8.3841 31.3227 8.46882 31.3675 8.54303C31.4123 8.61723 31.4697 8.67925 31.5358 8.72502C31.602 8.77078 31.6755 8.79927 31.7515 8.80861V8.80861Z" fill="white"/>
<path d="M7.18646 136.874C7.14208 137.283 7.17268 137.699 7.27612 138.092C7.37956 138.485 7.55334 138.847 7.78533 139.151C8.26263 140.046 8.52101 141.084 8.53109 142.146C8.56422 142.351 8.56122 142.561 8.5223 142.764C8.48337 142.967 8.40938 143.158 8.3051 143.325C8.22135 143.457 8.16875 143.613 8.15284 143.778C8.13693 143.942 8.1583 144.109 8.21471 144.26C8.38863 145.088 8.60371 145.902 8.85877 146.699C9.0691 147.237 9.1209 147.843 9.00567 148.421C8.85871 149.256 8.85871 150.119 9.00567 150.955C9.20043 152.1 9.25374 153.274 9.16386 154.438C9.03956 155.793 9.07346 157.148 9.02826 158.584C9.02826 159.059 8.96047 159.533 8.93787 160.007C8.91527 160.482 8.93787 161.037 8.87007 161.566L8.76838 163.233C8.76838 163.314 8.76838 163.409 8.76838 163.49C9.01697 165.293 8.55369 167.068 8.76838 168.911C8.81185 170.16 8.73221 171.411 8.53109 172.638C8.44045 173.388 8.18282 174.095 7.78533 174.684C7.62713 174.942 7.50284 175.036 7.27685 174.969C6.50849 174.765 6.3842 174.562 6.2486 173.207C6.06972 171.843 6.17055 170.448 6.54239 169.141C6.65549 168.788 6.65549 168.397 6.54239 168.044C6.4068 167.475 6.3051 166.878 6.14691 166.35C5.47342 163.625 5.31135 160.756 5.67233 157.948C5.67789 157.821 5.67789 157.694 5.67233 157.568C5.66581 155.709 5.82874 153.855 6.15821 152.039C6.34952 150.637 6.44025 149.218 6.4294 147.797C6.40303 147.498 6.42857 147.195 6.50441 146.908C6.58025 146.622 6.70474 146.357 6.87007 146.13C6.97686 145.989 7.05771 145.823 7.10736 145.642C7.1647 145.545 7.18955 145.426 7.17699 145.308C7.16444 145.19 7.11539 145.082 7.03956 145.005C6.83187 144.811 6.6557 144.572 6.51979 144.301C6.30048 143.891 6.15785 143.428 6.10171 142.946C5.96438 141.801 6.09342 140.633 6.47459 139.571C6.81568 138.791 6.88868 137.881 6.67798 137.037C6.4181 135.682 6.2486 134.327 6.07911 132.971C6.01131 132.443 6.07911 131.86 6.07911 131.291C6.07911 130.22 5.96612 129.136 5.92092 128.052C5.83522 125.586 5.96017 123.115 6.2938 120.68C6.50849 119.026 6.55369 117.319 6.68928 115.638C6.76838 114.649 6.88137 113.673 6.96047 112.684C7.0516 112.008 7.0819 111.322 7.05086 110.638C6.8218 108.672 6.73109 106.686 6.77968 104.702C6.80801 103.499 6.7093 102.297 6.48589 101.124C6.13855 99.3627 6.24091 97.5165 6.77968 95.8255C6.95001 95.3168 6.95001 94.7488 6.77968 94.24C6.5635 93.3977 6.40108 92.5369 6.2938 91.6651C6.1606 90.9077 6.26097 90.118 6.57629 89.4426C6.65701 89.3237 6.71488 89.1848 6.74578 89.036C6.82327 88.3975 7.01609 87.787 7.31075 87.2472C7.39692 87.096 7.4372 86.9139 7.42486 86.7314C7.41252 86.5488 7.3483 86.3769 7.24295 86.2443C7.16386 86.1495 7.07346 86.0682 6.99437 85.9598C6.81765 85.6888 6.691 85.3759 6.62282 85.0418C6.55464 84.7077 6.54648 84.36 6.59889 84.0218C6.70909 82.7601 6.92873 81.5157 7.25425 80.3086C7.43524 79.7695 7.43524 79.1673 7.25425 78.6282C6.98526 77.5881 6.77016 76.529 6.61019 75.457C6.56374 75.007 6.56374 74.5518 6.61019 74.1018C6.66668 72.9364 6.77968 71.7709 6.83617 70.6054C6.83618 70.2779 6.79035 69.9526 6.70058 69.6433C6.5796 69.2765 6.43998 68.9189 6.2825 68.5726C5.70549 66.855 5.51079 64.987 5.71753 63.1519C5.7676 62.8577 5.79034 62.5577 5.78533 62.2575C5.63558 60.4598 5.95542 58.6507 6.70058 57.0806C7.02827 56.3353 7.03956 56.3217 6.75708 55.5222C6.57644 55.0299 6.37273 54.5503 6.14691 54.0857C5.51233 52.8732 5.22288 51.4466 5.32205 50.0201C5.40115 48.9901 5.37855 47.9331 5.43504 46.9031C5.43504 46.3746 5.53674 45.9681 5.95482 45.8867C6.3729 45.8054 6.56499 45.3989 6.83617 45.0601C6.94284 44.8923 7.0114 44.6943 7.03517 44.4853C7.05894 44.2762 7.03709 44.0634 6.97177 43.8675C6.83584 43.0079 6.66234 42.1575 6.45199 41.3198C6.18049 40.3392 6.20045 39.2761 6.50849 38.3112C6.78896 37.429 7.33819 36.7073 8.04521 36.292C8.10171 36.292 8.226 36.3869 8.2825 36.4953C8.62308 37.0678 8.8396 37.733 8.91258 38.4308C8.98556 39.1287 8.91271 39.8374 8.70058 40.4931C8.36184 41.7207 8.36184 43.0465 8.70058 44.2741C8.97144 45.8293 8.97144 47.4349 8.70058 48.9901C8.62149 50.0743 8.48589 51.1313 8.3842 52.2019C8.37279 52.2872 8.37279 52.3741 8.3842 52.4594C8.7976 54.2898 9.08855 56.1569 9.25425 58.0428C9.27017 58.534 9.41224 59.0073 9.66103 59.398C9.793 59.6135 9.87942 59.8642 9.91287 60.1286C9.94633 60.3929 9.92583 60.6631 9.85312 60.9158C9.60358 61.786 9.5149 62.7108 9.59324 63.6262C9.60323 63.7537 9.57951 63.8817 9.52544 63.9921C9.05158 65.4571 9.00381 67.071 9.38985 68.5726C9.50284 69.1554 9.48024 69.9278 9.88702 70.2124C9.93104 70.2723 9.95516 70.3495 9.95482 70.4293C9.95482 71.9606 10.4294 73.4649 9.95482 75.0369C9.7611 76.0687 9.49655 77.0795 9.16386 78.059C8.96047 78.5062 9.05086 79.2787 8.71188 79.6446C8.70156 79.8026 8.72489 79.9611 8.77968 80.1053C8.93787 80.4712 9.14126 80.7965 9.31075 81.1624C9.51193 81.5948 9.6323 82.0745 9.66352 82.5682C9.69474 83.062 9.63606 83.558 9.49154 84.0218C9.28042 84.7248 9.02741 85.4087 8.73448 86.0682C8.4068 86.8135 8.40679 87.0981 8.81357 87.6808C9.29622 88.5962 9.50722 89.6801 9.41245 90.7571C9.42531 91.2122 9.39116 91.6674 9.31075 92.1123C9.07224 93.4895 9.10707 94.9147 9.41245 96.2728C9.57012 97.1663 9.57012 98.0896 9.41245 98.9831C9.26781 99.8057 9.29891 100.659 9.50284 101.463C9.69381 102.347 9.77004 103.262 9.72883 104.174C9.72883 105.298 9.72883 106.437 9.72883 107.562C9.75833 107.772 9.75833 107.988 9.72883 108.198C9.5002 109.148 9.41599 110.14 9.48024 111.126C9.48024 112.481 9.48024 113.944 9.48024 115.367C9.48024 115.733 9.27685 116.086 9.26555 116.452C9.17554 117.643 9.03221 118.829 8.83617 120.002C8.74558 120.68 8.74558 121.371 8.83617 122.048C9.04405 123.358 8.97411 124.71 8.63278 125.979C8.33823 127.438 8.28449 128.953 8.47459 130.437C8.62553 131.931 8.55283 133.446 8.2599 134.909C8.18081 135.316 8.09041 135.587 7.78533 135.438C7.24295 135.18 7.18646 135.289 7.14126 136.292C7.14613 136.487 7.16123 136.681 7.18646 136.874V136.874Z" fill="white"/>
<path d="M8.91523 181.311C8.91523 182.138 8.91523 182.964 8.91523 183.791C8.91523 184.238 8.80223 184.604 8.47455 184.658C8.14687 184.713 8.07907 184.97 7.86438 185.038C7.28811 185.241 6.97172 184.821 6.93783 183.777C6.91871 183.256 6.94522 182.734 7.01692 182.219C7.08766 181.952 7.09881 181.668 7.04924 181.395C6.99966 181.121 6.89111 180.868 6.73444 180.661C6.58878 180.435 6.49022 180.171 6.44697 179.89C6.40373 179.61 6.41706 179.321 6.48585 179.048C6.64753 178.037 7.03851 177.099 7.61579 176.337C7.6817 176.275 7.76333 176.241 7.84743 176.241C7.93153 176.241 8.01316 176.275 8.07907 176.337C8.42061 176.695 8.66469 177.167 8.77963 177.693C9.0146 178.878 9.0606 180.105 8.91523 181.311V181.311Z" fill="white"/>
<path d="M8.39554 191.461C8.39554 192.288 8.39554 193.115 8.39554 193.941C8.39554 194.389 8.27124 194.741 7.94356 194.795C7.61588 194.849 7.54808 195.12 7.33339 195.188C6.75712 195.378 6.44073 194.958 6.40684 193.914C6.38776 193.397 6.41427 192.879 6.48593 192.369C6.5588 192.101 6.57105 191.814 6.52144 191.538C6.47182 191.261 6.3621 191.006 6.20345 190.797C6.05608 190.573 5.95646 190.309 5.91315 190.028C5.86984 189.747 5.88416 189.457 5.95486 189.185C6.10901 188.171 6.50098 187.23 7.0848 186.474C7.14407 186.401 7.22228 186.355 7.30651 186.343C7.39074 186.33 7.47595 186.353 7.54808 186.406C7.89352 186.76 8.13842 187.233 8.24864 187.762C8.49466 188.972 8.54453 190.228 8.39554 191.461V191.461Z" fill="white"/>
<path d="M8.39554 201.395C8.39554 202.221 8.39554 203.048 8.39554 203.875C8.39554 204.322 8.27124 204.688 7.94356 204.742C7.61588 204.796 7.54808 205.054 7.33339 205.135C6.75712 205.325 6.44073 204.905 6.40684 203.861C6.38742 203.344 6.41393 202.826 6.48593 202.316C6.5588 202.048 6.57105 201.761 6.52144 201.485C6.47182 201.208 6.3621 200.953 6.20345 200.744C6.05608 200.52 5.95646 200.256 5.91315 199.975C5.86984 199.694 5.88416 199.404 5.95486 199.132C6.10901 198.118 6.50098 197.177 7.0848 196.421C7.14376 196.348 7.22114 196.301 7.30492 196.286C7.3887 196.271 7.47418 196.29 7.54808 196.34C7.88962 196.697 8.1337 197.169 8.24864 197.695C8.49607 198.905 8.54595 200.162 8.39554 201.395V201.395Z" fill="white"/>
<path d="M8.39552 211.41C8.39552 212.237 8.39552 213.063 8.39552 213.89C8.39552 214.337 8.27123 214.703 7.94354 214.757C7.61586 214.811 7.54806 215.069 7.33337 215.137C6.7571 215.34 6.44072 214.92 6.40682 213.876C6.38741 213.36 6.41392 212.842 6.48592 212.331C6.55998 212.063 6.57284 211.776 6.52317 211.499C6.4735 211.223 6.36311 210.967 6.20343 210.759C6.05777 210.534 5.95921 210.27 5.91597 209.989C5.87272 209.709 5.88605 209.42 5.95484 209.147C6.109 208.133 6.50096 207.193 7.08479 206.436C7.14142 206.359 7.21911 206.309 7.30397 206.294C7.38883 206.279 7.47535 206.301 7.54806 206.355C7.8896 206.712 8.13369 207.185 8.24863 207.71C8.49605 208.921 8.54594 210.177 8.39552 211.41V211.41Z" fill="white"/>
<path d="M7.83057 29.4075C7.53679 30.2478 7.2543 31.1151 6.93792 31.9553C6.75713 32.4432 6.47464 32.5245 6.24865 32.2263C5.89348 31.7274 5.64426 31.1328 5.52227 30.4932C5.40027 29.8537 5.40913 29.1883 5.54809 28.5538C5.66108 27.822 5.71758 27.5916 6.11306 27.4832C6.27823 27.4243 6.4321 27.327 6.56589 27.1968C6.69967 27.0666 6.81073 26.906 6.89272 26.7243C7.01702 26.521 7.2204 26.1957 7.2995 26.2364C7.52273 26.3563 7.70301 26.5677 7.80798 26.8327C8.02583 27.6697 8.03369 28.5652 7.83057 29.4075Z" fill="white"/>
<path d="M8.19214 21.0188C8.64945 20.641 9.17716 20.4036 9.72887 20.3277C10.1575 20.2115 10.5503 19.9529 10.862 19.5814C11.1738 19.2099 11.392 18.7405 11.4916 18.2271C11.6227 17.2754 11.9888 16.3927 12.5424 15.6929C12.7345 15.4761 13.1639 15.4896 13.2543 15.1644C13.2966 15.1069 13.3419 15.0525 13.3899 15.0018L12.4294 13.7686C12.3164 13.8905 12.1469 13.9176 12.034 14.026C11.931 14.1776 11.8473 14.3466 11.7854 14.5275C11.7027 14.732 11.5825 14.9114 11.4338 15.0522C11.2851 15.1931 11.1117 15.2917 10.9266 15.3406C10.7568 15.361 10.5997 15.4574 10.4866 15.6107C10.3735 15.7639 10.3127 15.9626 10.3164 16.1672C10.3164 16.6416 10.0452 16.7635 9.76276 16.8584C9.62392 16.8787 9.48353 16.8787 9.34469 16.8584C8.8222 16.998 8.33389 17.2812 7.9182 17.6857C7.50251 18.0902 7.1708 18.6049 6.9492 19.1893C6.85073 19.4816 6.82713 19.8024 6.88141 20.1109C6.9984 20.4459 7.15854 20.7569 7.35598 21.0324C7.40972 21.1014 7.47489 21.1562 7.54732 21.1932C7.61975 21.2303 7.69783 21.2487 7.77656 21.2475C7.85529 21.2462 7.93293 21.2252 8.0045 21.1858C8.07607 21.1464 8.13998 21.0896 8.19214 21.0188Z" fill="white"/>
<path d="M123.322 239.394C123.627 239.45 123.938 239.413 124.228 239.288C124.519 239.162 124.778 238.952 124.983 238.676C125.621 238.117 126.386 237.805 127.175 237.782C127.326 237.747 127.482 237.753 127.63 237.8C127.779 237.847 127.917 237.933 128.034 238.053C128.126 238.152 128.241 238.216 128.363 238.238C128.486 238.259 128.611 238.237 128.723 238.175C129.328 237.96 129.921 237.697 130.497 237.389C130.885 237.137 131.338 237.074 131.763 237.212C132.372 237.389 133.007 237.389 133.616 237.212C134.45 236.989 135.308 236.93 136.158 237.036C137.153 237.172 138.181 237.145 139.186 237.199C139.537 237.199 139.887 237.199 140.237 237.307L141.367 237.389L142.599 237.497C142.659 237.51 142.72 237.51 142.78 237.497C144.102 237.199 145.401 237.754 146.757 237.497C147.671 237.459 148.585 237.555 149.48 237.782C150.038 237.903 150.556 238.213 150.972 238.676C151.058 238.739 151.126 238.833 151.164 238.945C151.203 239.058 151.211 239.182 151.186 239.299C151.028 240.207 150.893 240.37 149.898 240.519C148.904 240.739 147.877 240.616 146.938 240.167C146.676 240.046 146.386 240.046 146.124 240.167C145.718 240.329 145.288 240.451 144.893 240.641C142.914 241.436 140.801 241.627 138.746 241.197H138.463C137.104 241.203 135.749 241.008 134.429 240.614C133.409 240.381 132.372 240.267 131.333 240.275C130.847 240.275 130.373 240.275 130.102 239.76C130.001 239.637 129.882 239.536 129.751 239.462C129.715 239.431 129.674 239.408 129.63 239.396C129.587 239.384 129.542 239.382 129.498 239.391C129.454 239.4 129.411 239.419 129.373 239.447C129.336 239.476 129.303 239.513 129.277 239.557C129.137 239.796 128.965 240.007 128.768 240.18C128.478 240.425 128.146 240.592 127.797 240.668C126.954 240.835 126.089 240.684 125.322 240.235C125.05 240.031 124.743 239.903 124.424 239.86C124.105 239.818 123.783 239.863 123.48 239.991C122.52 240.289 121.537 240.506 120.542 240.709C120.136 240.736 119.728 240.736 119.322 240.709L116.949 240.899C115.14 241.004 113.327 240.849 111.548 240.438C110.35 240.18 109.096 240.14 107.864 239.977C107.141 239.882 106.429 239.733 105.706 239.638C105.214 239.533 104.713 239.502 104.215 239.543C102.763 239.785 101.294 239.857 99.8305 239.76C98.9474 239.733 98.0653 239.852 97.209 240.113C95.9317 240.563 94.5643 240.477 93.3333 239.869C93.1559 239.772 92.9632 239.722 92.7684 239.722C92.5735 239.722 92.3809 239.772 92.2034 239.869C91.5899 240.132 90.9586 240.332 90.3164 240.465C90.0447 240.538 89.7636 240.544 89.4898 240.484C89.216 240.423 88.9553 240.297 88.7232 240.113C88.6309 240.026 88.5279 239.958 88.4181 239.909C87.9449 239.81 87.4967 239.583 87.1073 239.245C87.0554 239.191 86.9948 239.149 86.9292 239.124C86.8636 239.098 86.7943 239.089 86.7256 239.097C86.6568 239.104 86.5901 239.129 86.5295 239.168C86.4689 239.208 86.4156 239.262 86.3729 239.327C86.3112 239.427 86.2432 239.523 86.1695 239.611C85.9828 239.825 85.7557 239.98 85.5078 240.065C85.2598 240.15 84.9983 240.162 84.7458 240.099C83.8149 239.963 82.9008 239.694 82.0226 239.299C81.8288 239.196 81.619 239.142 81.4068 239.142C81.1946 239.142 80.9848 239.196 80.791 239.299C80.0538 239.621 79.2986 239.879 78.5311 240.072C78.1861 240.127 77.8365 240.127 77.4915 240.072C76.6441 239.991 75.7966 239.855 74.9379 239.787C74.6965 239.786 74.4577 239.846 74.2373 239.963C73.9668 240.11 73.7028 240.273 73.4463 240.451C72.2214 241.143 70.8519 241.379 69.5141 241.129C69.3014 241.082 69.0861 241.055 68.8701 241.048C67.5364 241.225 66.1931 240.837 65.0734 239.95C64.5311 239.57 64.5198 239.543 63.9435 239.95C63.5795 240.164 63.2284 240.409 62.8927 240.682C62.042 241.418 61.0009 241.769 59.9548 241.671C59.209 241.563 58.4294 241.59 57.6949 241.535C57.3107 241.535 57.0057 241.4 56.9605 240.912C56.9153 240.424 56.5989 240.18 56.3503 239.841C56.2316 239.721 56.0877 239.643 55.9343 239.614C55.7808 239.585 55.6238 239.608 55.4802 239.679C54.8477 239.842 54.2249 240.054 53.6158 240.316C52.8847 240.653 52.0721 240.628 51.3559 240.248C50.6857 239.912 50.1398 239.295 49.8192 238.513C49.8192 238.432 49.887 238.297 49.9774 238.215C50.3772 237.816 50.8619 237.559 51.377 237.473C51.8922 237.387 52.4171 237.475 52.8927 237.727C53.7832 238.141 54.7705 238.141 55.661 237.727C56.7983 237.409 57.9813 237.409 59.1186 237.727C59.8983 237.836 60.678 237.985 61.4576 238.12C61.5212 238.134 61.5862 238.134 61.6497 238.12C62.9808 237.631 64.3461 237.286 65.7288 237.09C66.0821 237.045 66.4164 236.876 66.6893 236.603C66.8434 236.447 67.0294 236.343 67.2281 236.303C67.4268 236.262 67.6308 236.286 67.8192 236.372C68.4351 236.651 69.0968 236.753 69.7514 236.67C69.8421 236.673 69.9309 236.701 70.0113 236.752C71.0793 237.336 72.295 237.399 73.4011 236.928C73.8305 236.792 74.3729 236.806 74.5989 236.318C74.5989 236.318 74.7006 236.237 74.7571 236.237C75.887 236.237 77.017 235.681 78.1469 236.237C78.9242 236.464 79.681 236.782 80.4068 237.185C80.7345 237.429 81.2881 237.321 81.5367 237.727C81.6502 237.738 81.7638 237.71 81.8644 237.646C82.1356 237.443 82.3616 237.199 82.6328 236.996C82.9446 236.753 83.3017 236.606 83.6723 236.568C84.0428 236.53 84.4154 236.602 84.7571 236.779C85.2764 237.031 85.7756 237.34 86.2486 237.7C86.8023 238.093 87.0057 238.093 87.3785 237.592C88.0302 237.021 88.8367 236.765 89.6384 236.874C89.9877 236.866 90.3365 236.907 90.678 236.996C91.6859 237.281 92.739 237.239 93.7288 236.874C94.3907 236.692 95.0782 236.692 95.7401 236.874C96.3383 237.054 96.9679 237.017 97.548 236.765C98.1841 236.555 98.8435 236.463 99.5028 236.494C100.328 236.494 101.164 236.494 101.989 236.494C102.143 236.472 102.298 236.472 102.452 236.494C103.149 236.735 103.881 236.795 104.599 236.67C105.638 236.67 106.667 236.67 107.706 236.67C107.966 236.67 108.226 236.928 108.497 236.928C109.372 237.041 110.239 237.218 111.096 237.456C111.59 237.552 112.094 237.552 112.588 237.456C113.547 237.203 114.546 237.283 115.469 237.687C116.527 238.047 117.641 238.111 118.723 237.876C119.819 237.696 120.933 237.783 122 238.134C122.294 238.242 122.497 238.337 122.384 238.703C122.192 239.367 122.271 239.435 123.006 239.489L123.322 239.394Z" fill="white"/>
</svg>
